<svg xmlns="http://www.w3.org/2000/svg" version="1.1" xmlns:xlink="http://www.w3.org/1999/xlink" xmlns:svgjs="http://svgjs.dev/svgjs" width="512" height="512"><svg xmlns="http://www.w3.org/2000/svg" xmlns:xlink="http://www.w3.org/1999/xlink" width="512" zoomAndPan="magnify" viewBox="0 0 384 383.999986" height="512" preserveAspectRatio="xMidYMid meet" version="1.0"><defs><g></g></defs><path fill="#ff3131" d="M 157.230469 80.554688 C 157.230469 80.554688 158.75 81.3125 161.109375 81.480469 C 164.984375 81.820312 170.886719 80.808594 175.015625 72.546875 C 181.671875 59.316406 194.570312 47.09375 209.90625 52.320312 C 225.246094 57.546875 218.25 93.449219 233.253906 95.894531 C 248.257812 98.339844 256.601562 95.894531 263.933594 66.648438 C 271.265625 37.402344 302.953125 38.75 320.0625 51.140625 C 337.171875 63.53125 329.167969 94.207031 314.164062 104.660156 C 299.164062 115.109375 291.746094 151.097656 318.96875 144.441406 C 348.972656 137.109375 360.6875 152.699219 347.117188 182.367188 C 325.207031 230.492188 363.804688 203.605469 365.238281 227.710938 C 366.25 245.15625 337.511719 247.265625 331.441406 254.175781 C 321.246094 265.722656 331.273438 280.132812 334.730469 282.746094 C 340.292969 286.960938 353.523438 297.410156 367.515625 300.53125 C 381.421875 303.648438 385.296875 333.992188 370.296875 344.105469 C 355.292969 354.21875 334.054688 359.105469 323.605469 325.644531 C 313.152344 292.1875 282.472656 298.421875 272.359375 314.183594 C 262.246094 329.859375 243.113281 362.308594 225.332031 359.863281 C 207.546875 357.421875 198.53125 351.859375 185.214844 334.75 C 171.898438 317.640625 141.722656 350.507812 123.855469 345.199219 C 109.191406 340.816406 105.734375 335.421875 106.074219 313.089844 C 106.410156 290.753906 74.128906 316.292969 63.089844 299.773438 C 53.902344 286.117188 72.613281 271.707031 69.496094 264.625 C 62.5 249.035156 37.804688 260.496094 16.480469 266.902344 C -26.332031 279.796875 -25.152344 219.957031 12.265625 225.015625 C 40.671875 228.808594 71.011719 232.179688 60.140625 208.15625 C 47.496094 180.34375 55.25 169.472656 63.59375 158.347656 C 71.9375 147.222656 60.8125 132.21875 48.253906 117.21875 C 35.699219 102.214844 45.8125 87.214844 62.582031 90.753906 C 79.355469 94.292969 98.234375 118.144531 116.691406 101.371094 C 116.523438 101.289062 123.773438 66.480469 157.230469 80.554688 Z M 157.230469 80.554688 " fill-opacity="1" fill-rule="nonzero"></path><path fill="#ff3131" d="M 246.65625 30.492188 C 246.65625 31.300781 246.574219 32.101562 246.417969 32.890625 C 246.261719 33.683594 246.027344 34.453125 245.71875 35.199219 C 245.410156 35.945312 245.03125 36.65625 244.582031 37.328125 C 244.132812 38 243.621094 38.621094 243.050781 39.191406 C 242.480469 39.765625 241.859375 40.273438 241.1875 40.722656 C 240.515625 41.171875 239.804688 41.550781 239.058594 41.859375 C 238.3125 42.167969 237.542969 42.402344 236.75 42.558594 C 235.957031 42.71875 235.15625 42.796875 234.351562 42.796875 C 233.542969 42.796875 232.742188 42.71875 231.949219 42.558594 C 231.15625 42.402344 230.386719 42.167969 229.640625 41.859375 C 228.894531 41.550781 228.183594 41.171875 227.511719 40.722656 C 226.839844 40.273438 226.21875 39.765625 225.648438 39.191406 C 225.078125 38.621094 224.566406 38 224.117188 37.328125 C 223.667969 36.65625 223.289062 35.945312 222.980469 35.199219 C 222.671875 34.453125 222.4375 33.683594 222.28125 32.890625 C 222.125 32.101562 222.042969 31.300781 222.042969 30.492188 C 222.042969 29.683594 222.125 28.882812 222.28125 28.089844 C 222.4375 27.296875 222.671875 26.527344 222.980469 25.78125 C 223.289062 25.035156 223.667969 24.328125 224.117188 23.65625 C 224.566406 22.984375 225.078125 22.363281 225.648438 21.789062 C 226.21875 21.21875 226.839844 20.710938 227.511719 20.261719 C 228.183594 19.8125 228.894531 19.433594 229.640625 19.125 C 230.386719 18.8125 231.15625 18.582031 231.949219 18.421875 C 232.742188 18.265625 233.542969 18.1875 234.351562 18.1875 C 235.15625 18.1875 235.957031 18.265625 236.75 18.421875 C 237.542969 18.582031 238.3125 18.8125 239.058594 19.125 C 239.804688 19.433594 240.515625 19.8125 241.1875 20.261719 C 241.859375 20.710938 242.480469 21.21875 243.050781 21.789062 C 243.621094 22.363281 244.132812 22.984375 244.582031 23.65625 C 245.03125 24.328125 245.410156 25.035156 245.71875 25.78125 C 246.027344 26.527344 246.261719 27.296875 246.417969 28.089844 C 246.574219 28.882812 246.65625 29.683594 246.65625 30.492188 Z M 246.65625 30.492188 " fill-opacity="1" fill-rule="nonzero"></path><path fill="#ff3131" d="M 176.871094 352.109375 C 176.871094 352.621094 176.820312 353.125 176.71875 353.625 C 176.621094 354.121094 176.472656 354.609375 176.277344 355.078125 C 176.085938 355.546875 175.84375 355.996094 175.5625 356.417969 C 175.28125 356.84375 174.957031 357.234375 174.597656 357.59375 C 174.238281 357.953125 173.847656 358.273438 173.421875 358.558594 C 173 358.839844 172.554688 359.078125 172.082031 359.273438 C 171.613281 359.46875 171.128906 359.617188 170.628906 359.714844 C 170.128906 359.816406 169.625 359.863281 169.117188 359.863281 C 168.605469 359.863281 168.101562 359.816406 167.601562 359.714844 C 167.101562 359.617188 166.617188 359.46875 166.148438 359.273438 C 165.679688 359.078125 165.230469 358.839844 164.808594 358.558594 C 164.382812 358.273438 163.992188 357.953125 163.632812 357.59375 C 163.273438 357.234375 162.953125 356.84375 162.667969 356.417969 C 162.386719 355.996094 162.148438 355.546875 161.953125 355.078125 C 161.757812 354.609375 161.609375 354.121094 161.511719 353.625 C 161.410156 353.125 161.363281 352.621094 161.363281 352.109375 C 161.363281 351.601562 161.410156 351.097656 161.511719 350.597656 C 161.609375 350.097656 161.757812 349.613281 161.953125 349.144531 C 162.148438 348.671875 162.386719 348.226562 162.667969 347.804688 C 162.953125 347.378906 163.273438 346.988281 163.632812 346.628906 C 163.992188 346.269531 164.382812 345.945312 164.808594 345.664062 C 165.230469 345.382812 165.679688 345.140625 166.148438 344.945312 C 166.617188 344.753906 167.101562 344.605469 167.601562 344.507812 C 168.101562 344.40625 168.605469 344.355469 169.117188 344.355469 C 169.625 344.355469 170.128906 344.40625 170.628906 344.507812 C 171.128906 344.605469 171.613281 344.753906 172.082031 344.945312 C 172.554688 345.140625 173 345.382812 173.421875 345.664062 C 173.847656 345.945312 174.238281 346.269531 174.597656 346.628906 C 174.957031 346.988281 175.28125 347.378906 175.5625 347.804688 C 175.84375 348.226562 176.085938 348.671875 176.277344 349.144531 C 176.472656 349.613281 176.621094 350.097656 176.71875 350.597656 C 176.820312 351.097656 176.871094 351.601562 176.871094 352.109375 Z M 176.871094 352.109375 " fill-opacity="1" fill-rule="nonzero"></path><path fill="#ff3131" d="M 313.171875 352.507812 C 313.375 353.042969 313.542969 353.582031 313.671875 354.128906 C 313.804688 354.679688 313.894531 355.226562 313.945312 355.769531 C 313.992188 356.316406 314.003906 356.847656 313.972656 357.367188 C 313.941406 357.886719 313.871094 358.382812 313.757812 358.859375 C 313.648438 359.332031 313.5 359.777344 313.3125 360.1875 C 313.125 360.597656 312.902344 360.96875 312.648438 361.300781 C 312.390625 361.632812 312.105469 361.917969 311.792969 362.160156 C 311.476562 362.398438 311.140625 362.589844 310.777344 362.726562 C 310.414062 362.867188 310.039062 362.953125 309.644531 362.984375 C 309.25 363.019531 308.84375 362.996094 308.433594 362.921875 C 308.019531 362.84375 307.605469 362.71875 307.191406 362.539062 C 306.777344 362.359375 306.371094 362.128906 305.972656 361.851562 C 305.570312 361.574219 305.183594 361.25 304.816406 360.886719 C 304.445312 360.519531 304.09375 360.117188 303.765625 359.679688 C 303.441406 359.242188 303.140625 358.773438 302.871094 358.28125 C 302.597656 357.785156 302.359375 357.273438 302.15625 356.738281 C 301.953125 356.207031 301.785156 355.667969 301.65625 355.117188 C 301.527344 354.570312 301.433594 354.023438 301.386719 353.476562 C 301.335938 352.933594 301.324219 352.402344 301.355469 351.882812 C 301.386719 351.363281 301.457031 350.863281 301.570312 350.390625 C 301.679688 349.914062 301.828125 349.472656 302.015625 349.0625 C 302.203125 348.652344 302.425781 348.277344 302.679688 347.945312 C 302.9375 347.613281 303.222656 347.328125 303.535156 347.089844 C 303.851562 346.847656 304.191406 346.660156 304.550781 346.519531 C 304.914062 346.382812 305.292969 346.296875 305.6875 346.265625 C 306.082031 346.230469 306.484375 346.253906 306.894531 346.328125 C 307.308594 346.402344 307.722656 346.53125 308.136719 346.710938 C 308.550781 346.890625 308.957031 347.121094 309.359375 347.398438 C 309.757812 347.675781 310.144531 347.996094 310.515625 348.363281 C 310.886719 348.730469 311.234375 349.128906 311.5625 349.570312 C 311.886719 350.007812 312.1875 350.472656 312.457031 350.96875 C 312.730469 351.464844 312.96875 351.976562 313.171875 352.507812 Z M 313.171875 352.507812 " fill-opacity="1" fill-rule="nonzero"></path><path fill="#ff3131" d="M 400.71875 182.3125 C 401.351562 183 401.933594 183.726562 402.460938 184.484375 C 402.992188 185.246094 403.457031 186.027344 403.859375 186.828125 C 404.265625 187.632812 404.597656 188.441406 404.863281 189.253906 C 405.125 190.066406 405.3125 190.871094 405.425781 191.664062 C 405.539062 192.460938 405.574219 193.230469 405.535156 193.972656 C 405.492188 194.714844 405.375 195.421875 405.179688 196.085938 C 404.984375 196.75 404.71875 197.363281 404.378906 197.921875 C 404.039062 198.484375 403.632812 198.980469 403.160156 199.414062 C 402.6875 199.851562 402.15625 200.210938 401.570312 200.503906 C 400.984375 200.796875 400.347656 201.011719 399.671875 201.148438 C 398.992188 201.285156 398.28125 201.34375 397.535156 201.324219 C 396.789062 201.300781 396.027344 201.199219 395.246094 201.019531 C 394.464844 200.839844 393.679688 200.585938 392.890625 200.253906 C 392.101562 199.921875 391.324219 199.523438 390.558594 199.050781 C 389.792969 198.582031 389.054688 198.050781 388.339844 197.460938 C 387.628906 196.871094 386.957031 196.230469 386.324219 195.542969 C 385.691406 194.855469 385.109375 194.128906 384.582031 193.371094 C 384.050781 192.609375 383.585938 191.828125 383.183594 191.023438 C 382.777344 190.222656 382.445312 189.414062 382.179688 188.601562 C 381.917969 187.785156 381.730469 186.984375 381.617188 186.1875 C 381.503906 185.394531 381.46875 184.625 381.507812 183.882812 C 381.550781 183.136719 381.667969 182.433594 381.863281 181.769531 C 382.058594 181.105469 382.324219 180.492188 382.664062 179.929688 C 383.003906 179.371094 383.410156 178.875 383.882812 178.4375 C 384.355469 178.003906 384.886719 177.640625 385.472656 177.351562 C 386.0625 177.058594 386.695312 176.84375 387.371094 176.707031 C 388.050781 176.570312 388.761719 176.511719 389.507812 176.53125 C 390.253906 176.554688 391.015625 176.652344 391.796875 176.832031 C 392.578125 177.011719 393.363281 177.269531 394.152344 177.601562 C 394.941406 177.929688 395.71875 178.332031 396.484375 178.800781 C 397.25 179.273438 397.988281 179.800781 398.703125 180.394531 C 399.414062 180.984375 400.085938 181.625 400.71875 182.3125 Z M 400.71875 182.3125 " fill-opacity="1" fill-rule="nonzero"></path><path fill="#ff3131" d="M 76.238281 353.710938 C 72.191406 359.445312 65.28125 361.550781 60.898438 358.433594 C 56.515625 355.3125 56.179688 348.148438 60.308594 342.335938 C 64.351562 336.601562 76.152344 329.355469 80.535156 332.472656 C 84.917969 335.675781 80.367188 347.980469 76.238281 353.710938 Z M 76.238281 353.710938 " fill-opacity="1" fill-rule="nonzero"></path><path fill="#ff3131" d="M -3.324219 156.324219 C -11.667969 152.109375 -15.546875 142.839844 -11.921875 135.589844 C -8.296875 128.34375 1.480469 125.898438 9.824219 130.113281 C 18.167969 134.328125 29.714844 149.160156 26.089844 156.410156 C 22.464844 163.65625 5.019531 160.539062 -3.324219 156.324219 Z M -3.324219 156.324219 " fill-opacity="1" fill-rule="nonzero"></path><path fill="#ff3131" d="M 150.320312 9.757812 C 152.765625 16.078125 152.175781 29.648438 145.855469 32.09375 C 139.53125 34.539062 129.925781 24.929688 127.480469 18.609375 C 125.035156 12.285156 128.15625 5.207031 134.476562 2.761719 C 140.796875 0.320312 147.875 3.4375 150.320312 9.757812 Z M 150.320312 9.757812 " fill-opacity="1" fill-rule="nonzero"></path><path stroke-linecap="butt" transform="matrix(0.75, 0, 0, 0.75, 72.000002, 52.124996)" fill="none" stroke-linejoin="miter" d="M 72.005212 266.317735 C 83.375005 266.317735 92.42188 263.08336 99.151048 256.614609 C 105.921881 250.104192 109.307298 241.338566 109.307298 230.312524 L 109.307298 114.364598 L 34.635417 114.364598 L 34.635417 93.01043 L 133.328134 93.01043 L 133.328134 230.312524 C 133.328134 239.036483 131.895842 246.958358 129.031258 254.078151 C 126.21355 261.192735 122.130216 267.250027 116.791674 272.23961 C 111.453132 277.187527 105.010423 281.005236 97.458339 283.697945 C 89.906255 286.343778 81.421879 287.666695 72.005212 287.666695 C 64.192711 287.666695 56.901044 286.520862 50.13021 284.218778 C 43.359376 281.875028 37.348959 278.531278 32.093751 274.192736 C 26.885417 269.854194 22.546875 264.666693 19.072916 258.635443 C 15.604166 252.557317 13.239582 245.786483 11.979166 238.322941 L 36.000001 238.322941 C 37.609376 246.869817 41.687501 253.687526 48.239585 258.765651 C 54.838544 263.796901 62.76042 266.317735 72.005212 266.317735 Z M 240.005225 287.666695 C 231.281266 287.666695 223.187516 286.473987 215.723973 284.08857 C 208.260431 281.656278 201.812514 278.187528 196.390639 273.671902 C 190.963555 269.11461 186.687513 263.64586 183.562513 257.265651 C 180.479179 250.885442 178.854179 243.682316 178.682304 235.651066 L 204.005222 235.651066 C 204.005222 240.2969 204.937514 244.4844 206.802098 248.218775 C 208.67189 251.947942 211.29689 255.161484 214.682307 257.854193 C 218.067724 260.500026 221.973974 262.58336 226.401058 264.104193 C 230.828141 265.578152 235.536475 266.317735 240.526059 266.317735 C 251.723976 266.317735 260.598977 263.713568 267.156269 258.505234 C 273.75002 253.250026 277.052103 246.088567 277.052103 237.020858 C 277.052103 229.380232 274.640645 222.588565 269.822936 216.640648 C 265.052102 210.651064 258.125018 205.963563 249.057309 202.578147 L 228.807308 195.156271 C 199.119805 184.307312 184.281263 166.33856 184.281263 141.255225 C 184.281263 125.281265 189.333346 112.802098 199.44793 103.817722 C 209.604181 94.833346 223.557307 90.343763 241.307309 90.343763 C 249.687518 90.343763 257.322935 91.494804 264.223977 93.79168 C 271.166686 96.093763 277.182312 99.47918 282.260437 103.94793 C 287.338562 108.375014 291.328146 113.760431 294.239605 120.093765 C 297.187522 126.390641 298.750022 133.442724 298.927105 141.255225 L 273.598978 141.255225 C 273.598978 136.828141 272.708353 132.791683 270.932311 129.145849 C 269.151061 125.500015 266.786477 122.395849 263.833352 119.833348 C 260.927102 117.229181 257.520852 115.23439 253.614601 113.843765 C 249.708351 112.411473 245.520851 111.697931 241.046892 111.697931 C 230.937516 111.697931 222.973974 114.104181 217.156265 118.92189 C 211.385431 123.697932 208.494806 130.166682 208.494806 138.322933 C 208.494806 146.354184 210.666681 152.994809 215.005223 158.24481 C 219.39064 163.453143 226.463558 167.83856 236.229183 171.395852 L 257.583352 179.145853 C 271.817728 184.307312 282.671895 191.770854 290.135438 201.53648 C 297.59898 211.302106 301.333355 222.848981 301.333355 236.171899 C 301.333355 252.187525 295.864605 264.776068 284.927104 273.932319 C 273.989603 283.08857 259.015644 287.666695 240.005225 287.666695 Z M 240.005225 287.666695 " stroke="#000000" stroke-width="34.000042" stroke-opacity="1" stroke-miterlimit="4"></path><g fill="#ffffff" fill-opacity="1"><g transform="translate(72.000002, 265.874979)"><g><path d="M 54 -14 C 62.53125 -14 69.328125 -16.429688 74.390625 -21.296875 C 79.460938 -26.160156 82 -32.726562 82 -41 L 82 -128 L 26 -128 L 26 -144 L 100 -144 L 100 -41 C 100 -34.46875 98.929688 -28.535156 96.796875 -23.203125 C 94.660156 -17.867188 91.59375 -13.332031 87.59375 -9.59375 C 83.59375 -5.863281 78.757812 -3 73.09375 -1 C 67.425781 1 61.0625 2 54 2 C 48.132812 2 42.664062 1.132812 37.59375 -0.59375 C 32.53125 -2.332031 28.03125 -4.832031 24.09375 -8.09375 C 20.164062 -11.363281 16.898438 -15.265625 14.296875 -19.796875 C 11.703125 -24.328125 9.9375 -29.394531 9 -35 L 27 -35 C 28.195312 -28.601562 31.257812 -23.503906 36.1875 -19.703125 C 41.125 -15.898438 47.0625 -14 54 -14 Z M 54 -14 "></path></g></g></g><g fill="#ffffff" fill-opacity="1"><g transform="translate(191.996788, 265.874979)"><g><path d="M 60 2 C 53.46875 2 47.398438 1.097656 41.796875 -0.703125 C 36.203125 -2.503906 31.367188 -5.101562 27.296875 -8.5 C 23.234375 -11.894531 20.035156 -15.992188 17.703125 -20.796875 C 15.367188 -25.597656 14.132812 -31 14 -37 L 33 -37 C 33 -33.53125 33.695312 -30.394531 35.09375 -27.59375 C 36.5 -24.800781 38.46875 -22.40625 41 -20.40625 C 43.53125 -18.40625 46.460938 -16.835938 49.796875 -15.703125 C 53.128906 -14.566406 56.664062 -14 60.40625 -14 C 68.800781 -14 75.460938 -15.960938 80.390625 -19.890625 C 85.328125 -23.828125 87.796875 -29.195312 87.796875 -36 C 87.796875 -41.726562 85.992188 -46.828125 82.390625 -51.296875 C 78.796875 -55.765625 73.597656 -59.265625 66.796875 -61.796875 L 51.59375 -67.40625 C 29.332031 -75.53125 18.203125 -88.992188 18.203125 -107.796875 C 18.203125 -119.796875 22 -129.160156 29.59375 -135.890625 C 37.195312 -142.628906 47.664062 -146 61 -146 C 67.269531 -146 73.003906 -145.128906 78.203125 -143.390625 C 83.398438 -141.660156 87.898438 -139.128906 91.703125 -135.796875 C 95.503906 -132.460938 98.503906 -128.425781 100.703125 -123.6875 C 102.898438 -118.957031 104.066406 -113.660156 104.203125 -107.796875 L 85.203125 -107.796875 C 85.203125 -111.128906 84.535156 -114.160156 83.203125 -116.890625 C 81.867188 -119.628906 80.097656 -121.960938 77.890625 -123.890625 C 75.691406 -125.828125 73.125 -127.328125 70.1875 -128.390625 C 67.257812 -129.460938 64.128906 -130 60.796875 -130 C 53.203125 -130 47.238281 -128.195312 42.90625 -124.59375 C 38.570312 -121 36.40625 -116.132812 36.40625 -110 C 36.40625 -104 38.035156 -99.03125 41.296875 -95.09375 C 44.566406 -91.164062 49.867188 -87.867188 57.203125 -85.203125 L 73.203125 -79.40625 C 83.867188 -75.53125 92 -69.925781 97.59375 -62.59375 C 103.195312 -55.257812 106 -46.59375 106 -36.59375 C 106 -24.59375 101.898438 -15.160156 93.703125 -8.296875 C 85.503906 -1.429688 74.269531 2 60 2 Z M 60 2 "></path></g></g></g></svg><style>@media (prefers-color-scheme: light) { :root { filter: none; } }
@media (prefers-color-scheme: dark) { :root { filter: none; } }
</style></svg>